<svg width="15" height="15" viewBox="0 0 15 15" fill="none" xmlns="http://www.w3.org/2000/svg">
<path d="M12.4143 8.79142C12.4156 9.00227 12.3515 9.20833 12.2308 9.38124C12.1101 9.55414 11.9388 9.68539 11.7405 9.75692L8.40179 10.9851L7.17358 14.3217C7.10095 14.5195 6.96936 14.6902 6.79661 14.8108C6.62385 14.9314 6.41824 14.9961 6.20756 14.9961C5.99688 14.9961 5.79127 14.9314 5.61851 14.8108C5.44575 14.6902 5.31417 14.5195 5.24154 14.3217L4.01074 10.9893L0.67362 9.76106C0.476026 9.68833 0.305496 9.55673 0.185041 9.38404C0.064585 9.21134 0 9.00585 0 8.7953C0 8.58474 0.064585 8.37925 0.185041 8.20655C0.305496 8.03386 0.476026 7.90227 0.67362 7.82953L4.01229 6.60132L5.2405 3.26524C5.31324 3.06764 5.44483 2.89711 5.61752 2.77666C5.79022 2.6562 5.99571 2.59162 6.20627 2.59162C6.41682 2.59162 6.62231 2.6562 6.79501 2.77666C6.9677 2.89711 7.0993 3.06764 7.17203 3.26524L8.40024 6.60391L11.7363 7.83212C11.9344 7.90261 12.1059 8.03262 12.2273 8.20435C12.3487 8.37608 12.414 8.58113 12.4143 8.79142ZM8.7943 2.58571H9.82859V3.62C9.82859 3.75715 9.88307 3.88869 9.98005 3.98567C10.077 4.08265 10.2086 4.13714 10.3457 4.13714C10.4829 4.13714 10.6144 4.08265 10.7114 3.98567C10.8084 3.88869 10.8629 3.75715 10.8629 3.62V2.58571H11.8972C12.0343 2.58571 12.1658 2.53123 12.2628 2.43424C12.3598 2.33726 12.4143 2.20572 12.4143 2.06857C12.4143 1.93141 12.3598 1.79988 12.2628 1.70289C12.1658 1.60591 12.0343 1.55143 11.8972 1.55143H10.8629V0.517142C10.8629 0.379988 10.8084 0.24845 10.7114 0.151467C10.6144 0.0544844 10.4829 0 10.3457 0C10.2086 0 10.077 0.0544844 9.98005 0.151467C9.88307 0.24845 9.82859 0.379988 9.82859 0.517142V1.55143H8.7943C8.65715 1.55143 8.52561 1.60591 8.42863 1.70289C8.33164 1.79988 8.27716 1.93141 8.27716 2.06857C8.27716 2.20572 8.33164 2.33726 8.42863 2.43424C8.52561 2.53123 8.65715 2.58571 8.7943 2.58571ZM14.4829 4.65428H13.9657V4.13714C13.9657 3.99998 13.9112 3.86845 13.8143 3.77146C13.7173 3.67448 13.5857 3.62 13.4486 3.62C13.3114 3.62 13.1799 3.67448 13.0829 3.77146C12.9859 3.86845 12.9314 3.99998 12.9314 4.13714V4.65428H12.4143C12.2771 4.65428 12.1456 4.70876 12.0486 4.80575C11.9516 4.90273 11.8972 5.03427 11.8972 5.17142C11.8972 5.30858 11.9516 5.44011 12.0486 5.5371C12.1456 5.63408 12.2771 5.68856 12.4143 5.68856H12.9314V6.20571C12.9314 6.34286 12.9859 6.4744 13.0829 6.57138C13.1799 6.66836 13.3114 6.72285 13.4486 6.72285C13.5857 6.72285 13.7173 6.66836 13.8143 6.57138C13.9112 6.4744 13.9657 6.34286 13.9657 6.20571V5.68856H14.4829C14.62 5.68856 14.7516 5.63408 14.8485 5.5371C14.9455 5.44011 15 5.30858 15 5.17142C15 5.03427 14.9455 4.90273 14.8485 4.80575C14.7516 4.70876 14.62 4.65428 14.4829 4.65428Z" fill="white"/>
</svg>
